<svg xmlns:xlink="http://www.w3.org/1999/xlink" class="gd-icon gd-icon-fetch-female db mr2 tertiary" version="1.1" xmlns="http://www.w3.org/2000/svg" style="height: 24px; min-height: 24px; min-width: 24px; width: 24px;" width="24"  height="24" ><defs><symbol id="icon-fetch-female" viewBox="0 0 24 24" fill="none"><path fill-rule="evenodd" clip-rule="evenodd" d="M6.92676 10.9723C6.92676 7.5699 9.68524 4.81067 13.0884 4.81067C16.4915 4.81067 19.2501 7.56991 19.2501 10.9723C19.2501 14.3756 16.4916 17.134 13.0884 17.134C11.378 17.134 9.83052 16.4373 8.71418 15.3121C8.70112 15.2968 8.68734 15.2818 8.67284 15.2673C8.66278 15.2573 8.65249 15.2475 8.64201 15.2382C7.57964 14.1311 6.92676 12.628 6.92676 10.9723ZM7.1121 15.7672C6.05765 14.4546 5.42676 12.7872 5.42676 10.9723C5.42676 6.7416 8.85669 3.31067 13.0884 3.31067C17.3201 3.31067 20.7501 6.74159 20.7501 10.9723C20.7501 15.204 17.32 18.634 13.0884 18.634C11.2119 18.634 9.49298 17.9595 8.16094 16.8397L6.6306 18.3697L7.56639 19.3058C7.85925 19.5987 7.85918 20.0736 7.56625 20.3664C7.27331 20.6593 6.79844 20.6592 6.50559 20.3663L5.56983 19.4303L4.53027 20.4696C4.23735 20.7625 3.76248 20.7624 3.46961 20.4695C3.17675 20.1766 3.1768 19.7017 3.46972 19.4088L4.50932 18.3694L3.57171 17.4316C3.27885 17.1386 3.27892 16.6638 3.57185 16.3709C3.86479 16.0781 4.33966 16.0781 4.63251 16.3711L5.57009 17.3089L7.1121 15.7672Z" fill="#040416"></path></symbol></defs><use xlink:href="#icon-fetch-female"></use></svg>