<svg xmlns:xlink="http://www.w3.org/1999/xlink" class="gd-icon gd-icon-fetch-male db mr2 tertiary" version="1.1" xmlns="http://www.w3.org/2000/svg" style="height: 24px; min-height: 24px; min-width: 24px; width: 24px;" width="24"  height="24" ><defs><symbol id="icon-fetch-male" viewBox="0 0 24 24" fill="none"><path fill-rule="evenodd" clip-rule="evenodd" d="M19.2382 8.23601L19.2431 5.87721L16.3499 8.77039C17.3493 10.0254 17.9464 11.6148 17.9464 13.3435C17.9464 17.4021 14.6564 20.6921 10.5978 20.6921C6.53998 20.6921 3.25 17.4021 3.25 13.3435C3.25 9.28577 6.54004 5.99573 10.5978 5.99573C12.387 5.99573 14.0268 6.63511 15.3012 7.69777L18.1874 4.81161L15.8187 4.81651C15.4045 4.81737 15.068 4.48228 15.0672 4.06807C15.0663 3.65385 15.4014 3.31737 15.8156 3.31651L19.9953 3.30786C20.1054 3.30764 20.213 3.33161 20.3111 3.37685C20.3905 3.41304 20.465 3.46383 20.5304 3.52922C20.6949 3.69375 20.767 3.9157 20.7467 4.13056L20.7382 8.23913C20.7373 8.65335 20.4008 8.98843 19.9866 8.98757C19.5724 8.98671 19.2373 8.65022 19.2382 8.23601ZM4.75 13.3435C4.75 10.1142 7.36846 7.49573 10.5978 7.49573C13.828 7.49573 16.4464 10.1143 16.4464 13.3435C16.4464 16.5737 13.828 19.1921 10.5978 19.1921C7.36852 19.1921 4.75 16.5737 4.75 13.3435Z" fill="#040416"></path></symbol></defs><use xlink:href="#icon-fetch-male"></use></svg>